<svg width="512" height="512" viewBox="0 0 512 512" fill="none" xmlns="http://www.w3.org/2000/svg">
<path d="M288 136V0H88C74.7 0 64 10.7 64 24V488C64 501.3 74.7 512 88 512H424C437.3 512 448 501.3 448 488V160H312C298.8 160 288 149.2 288 136ZM364.45 347.36L268.03 443.06C261.38 449.67 250.64 449.67 243.99 443.06L147.57 347.36C137.42 337.29 144.54 320 158.82 320H224V240C224 231.16 231.16 224 240 224H272C280.84 224 288 231.16 288 240V320H353.18C367.46 320 374.58 337.29 364.45 347.36ZM441 105L343.1 7C338.6 2.5 332.5 0 326.1 0H320V128H448V121.9C448 115.6 445.5 109.5 441 105Z" fill="#AAAAAA"/>
</svg>
