<svg width="512" height="512" viewBox="0 0 512 512" fill="none" xmlns="http://www.w3.org/2000/svg">
<path d="M185.006 70.6H133.526C101.491 70.6 85.4611 70.6 73.2255 76.8345C62.4624 82.3183 53.7183 91.0624 48.2345 101.825C42 114.061 42 130.091 42 162.126V379.486C42 411.521 42 427.531 48.2345 439.766C53.7183 450.528 62.4624 459.288 73.2255 464.771C85.4491 471 101.459 471 133.432 471H350.969C382.941 471 398.928 471 411.152 464.771C421.914 459.288 430.688 450.52 436.171 439.757C442.4 427.534 442.4 411.541 442.4 379.569V328M471 185V42M471 42H328M471 42L270.8 242.2" stroke="#AAAAAA" stroke-width="72" stroke-linecap="round" stroke-linejoin="round"/>
</svg>
